<svg width="24" height="24" viewBox="0 0 24 24" fill="none" xmlns="http://www.w3.org/2000/svg">
<path fill-rule="evenodd" clip-rule="evenodd" d="M8.30963 6.62213C8.63913 6.29262 9.17337 6.29262 9.50287 6.62213C9.83237 6.95163 9.83237 7.48587 9.50287 7.81537L5.31824 12L9.50287 16.1847C9.83237 16.5142 9.83237 17.0483 9.50287 17.3778C9.17337 17.7073 8.63913 17.7073 8.30963 17.3778L3.52838 12.5966C3.19887 12.2671 3.19887 11.7329 3.52838 11.4034L8.30963 6.62213ZM15.6903 6.62213C15.3608 6.29262 14.8267 6.29262 14.4972 6.62213C14.1676 6.95163 14.1676 7.48587 14.4972 7.81537L18.6817 12L14.4972 16.1847C14.1676 16.5142 14.1676 17.0483 14.4972 17.3778C14.8267 17.7073 15.3608 17.7073 15.6903 17.3778L20.4716 12.5966C20.8011 12.2671 20.8011 11.7329 20.4716 11.4034L15.6903 6.62213Z" fill="#506176"/>
</svg>
